<?xml version="1.0" encoding="utf-8"?>
<!-- Generator: Adobe Illustrator 16.0.0, SVG Export Plug-In . SVG Version: 6.00 Build 0)  -->
<!DOCTYPE svg PUBLIC "-//W3C//DTD SVG 1.1//EN" "http://www.w3.org/Graphics/SVG/1.1/DTD/svg11.dtd">
<svg version="1.1" id="Capa_1" xmlns="http://www.w3.org/2000/svg" xmlns:xlink="http://www.w3.org/1999/xlink" x="0px" y="0px"
	 width="32px" height="45px" viewBox="0 0 32 45" enable-background="new 0 0 32 45" xml:space="preserve">
<g>
	<defs>
		<path id="SVGID_1_" d="M7.505,33.002c-0.03,1.391-1.287,2.504-2.834,2.504H4.112l-0.007,0.396h9.568v-0.396h-0.456
			c-1.547,0-2.802-1.113-2.832-2.504v-8.404l2.78-0.002h0.508v-1.193h-3.288v-5.421h-2.88V33.002z"/>
	</defs>
	<clipPath id="SVGID_2_">
		<use xlink:href="#SVGID_1_"  overflow="visible"/>
	</clipPath>
	
		<linearGradient id="SVGID_3_" gradientUnits="userSpaceOnUse" x1="-493.9941" y1="407.583" x2="-493.8655" y2="407.583" gradientTransform="matrix(-159.0352 74.5478 74.5478 159.0352 -108914.125 -27978)">
		<stop  offset="0" style="stop-color:#AAC810"/>
		<stop  offset="1" style="stop-color:#096834"/>
	</linearGradient>
	<polygon clip-path="url(#SVGID_2_)" fill="url(#SVGID_3_)" points="21.32,32.676 5.828,39.217 -3.542,21.21 11.949,14.669 	"/>
</g>
<g>
	<defs>
		<path id="SVGID_4_" d="M4.127,10.143h0.56c1.47,0,2.675,1.007,2.818,2.295v3.242v0.544c-0.198-0.01-0.399-0.023-0.603-0.039
			c-1.626-0.124-3.334-0.419-3.979-0.664v5.007l0.445-0.007v-0.709c0-1.277,1.119-2.317,2.521-2.373h1.014h0.603h2.88h0.603h3.287
			v5.42v0.543v1.193v0.543v9.826v1.484v3.156c-0.065,1.355-1.306,2.439-2.829,2.439h-0.56l-0.006,0.398h9.679l-0.007-0.398h-0.559
			c-1.537,0-2.785-1.1-2.832-2.473V25.057v-0.545v-1.299v-0.559v-5.216h3.681c0.001-0.086,0.001-0.173,0-0.259v-0.056v-0.07
			c-0.01-0.28-0.033-0.547-0.063-0.809h-9.791h-0.603v-0.543v-4.759h5.098c3.281,0,5.289,1.856,5.821,4.759
			c0.033,0.177,0.057,0.359,0.078,0.543c0.031,0.258,0.055,0.522,0.062,0.795c0.002,0.044,0.002,0.089,0.002,0.133
			c0,0.088,0,0.178,0,0.266c-0.003,0.183-0.013,0.364-0.025,0.543c-0.043,0.567-0.133,1.097-0.259,1.459
			c-0.14,0.399-0.307,0.761-0.495,1.094c-0.419,0.803-1.001,1.462-1.744,1.945c-0.352,0.228-0.738,0.416-1.157,0.562v1.4
			c3.987-0.598,6.502-2.926,6.923-6.459c0.021-0.177,0.03-0.36,0.039-0.543h0.604h0.213c1.401,0.055,2.521,1.095,2.521,2.373v0.709
			l0.445,0.007v-5.007c-0.55,0.208-1.871,0.453-3.256,0.598c-0.197,0.021-0.397,0.041-0.595,0.056
			c-0.025-0.183-0.063-0.361-0.098-0.537c-0.783-3.687-4.021-5.89-8.919-5.89L4.121,9.747L4.127,10.143z"/>
	</defs>
	<clipPath id="SVGID_5_">
		<use xlink:href="#SVGID_4_"  overflow="visible"/>
	</clipPath>
	
		<linearGradient id="SVGID_6_" gradientUnits="userSpaceOnUse" x1="-493.9824" y1="407.584" x2="-493.8541" y2="407.584" gradientTransform="matrix(-163.2747 76.535 76.535 163.2747 -111815.1875 -28723.875)">
		<stop  offset="0" style="stop-color:#AAC810"/>
		<stop  offset="1" style="stop-color:#096834"/>
	</linearGradient>
	<polygon clip-path="url(#SVGID_5_)" fill="url(#SVGID_6_)" points="42.46,36.553 7.532,51.297 -11.028,15.636 23.898,0.891 	"/>
</g>
<g>
	<path fill-rule="evenodd" clip-rule="evenodd" fill="#FFFFFF" d="M13.714,6.31c1.119,0.172,2.215,0.34,3.362,0.517
		c0.022-0.186,0.054-0.376,0.068-0.567c0.051-0.733,0.278-0.879,0.992-0.602c2.153,0.836,4.19,1.863,6.052,3.174
		c0.231,0.163,0.463,0.324,0.814,0.568c-0.051-0.566-0.06-1.026-0.14-1.475c-0.579-3.25-3.745-5.721-7.193-5.63
		C15.37,2.355,13.562,4.156,13.714,6.31z"/>
	<path fill-rule="evenodd" clip-rule="evenodd" fill="#FFFFFF" d="M9.768,6.277c0.892-0.021,1.783-0.043,2.666-0.064
		c0.807-3.029,2.476-4.925,4.375-4.996c-2.48,1.026-4.085,2.992-4.068,5.022c0.16,0.006,0.322,0.013,0.452,0.018
		c0.146-0.586,0.217-1.149,0.427-1.663c0.777-1.906,2.749-2.907,5.209-2.665c0.521,0.051,1.048,0.145,1.549,0.287
		c0.497,0.141,0.967,0.365,1.44,0.55c-0.91-1.562-4.323-2.413-7.055-1.752C12.013,1.68,9.739,4.063,9.768,6.277z"/>
	<path fill-rule="evenodd" clip-rule="evenodd" fill="#FFFFFF" d="M5.295,7.809C5.51,7.674,5.708,7.458,5.94,7.421
		c1.422-0.231,2.845-0.524,4.279-0.605c3.462-0.198,6.849,0.184,10.017,1.58c1.982,0.873,3.705,2.091,5.109,3.655
		c0.826,0.919,0.49,1.852-0.749,2.104c0.647-0.71,0.45-1.385-0.063-2.034c-0.183-0.232-0.398-0.446-0.62-0.648
		c-1.697-1.547-3.749-2.515-6.022-3.12c-2.785-0.74-5.632-0.836-8.5-0.679C8.051,7.746,6.714,7.857,5.375,7.951
		C5.349,7.903,5.322,7.855,5.295,7.809z"/>
	<path fill-rule="evenodd" clip-rule="evenodd" fill="#FFFFFF" d="M25.143,11.294c0.284-0.659,0.201-1.14-0.321-1.546
		c-2.063-1.603-4.383-2.806-6.855-3.776c-0.1-0.039-0.218-0.037-0.382-0.062c-0.04,0.355-0.078,0.687-0.123,1.065
		C20.389,7.831,22.966,9.196,25.143,11.294z"/>
	<path fill-rule="evenodd" clip-rule="evenodd" fill="#FFFFFF" d="M8.294,6.415c0.502,0.073,0.742-0.062,0.848-0.487
		C9.25,5.494,9.438,5.073,9.631,4.662c0.182-0.389,0.416-0.757,0.585-1.155C9.333,4.333,8.522,5.199,8.294,6.415z"/>
	<path fill-rule="evenodd" clip-rule="evenodd" fill="#FFFFFF" d="M5.506,8.374c0.941,0.634,1.911,0.975,2.937,1.188
		C8.472,9.504,8.5,9.447,8.528,9.389C8.03,9.215,7.537,9.026,7.032,8.872C6.545,8.725,6.265,8.1,5.506,8.374z"/>
</g>
</svg>
