<?xml version="1.0" encoding="utf-8"?>
<!-- Generator: Adobe Illustrator 16.0.0, SVG Export Plug-In . SVG Version: 6.00 Build 0)  -->
<!DOCTYPE svg PUBLIC "-//W3C//DTD SVG 1.1//EN" "http://www.w3.org/Graphics/SVG/1.1/DTD/svg11.dtd">
<svg version="1.1" id="Capa_1" xmlns="http://www.w3.org/2000/svg" xmlns:xlink="http://www.w3.org/1999/xlink" x="0px" y="0px"
	 width="32px" height="45px" viewBox="0 0 32 45" enable-background="new 0 0 32 45" xml:space="preserve">
<path fill-rule="evenodd" clip-rule="evenodd" d="M29.126,36.006c0.022-0.484,0.054-0.85,0.055-1.217
	c0.015-9.98,0.026-19.962,0.038-29.944c0.002-1.268-0.071-1.365-1.395-1.373c-3.1-0.02-6.2-0.012-9.301-0.013
	c-4.905,0-9.811,0.013-14.717-0.009C3.054,3.446,2.729,3.602,2.732,4.464c0.04,10.016,0.039,20.03,0.049,30.047
	c0,0.5,0,1.002,0,1.564c1.863,0,3.59-0.016,5.316,0.004c1.167,0.014,1.602,0.719,1.04,1.754c-0.15,0.275-0.606,0.531-0.93,0.543
	c-1.973,0.07-3.949,0.08-5.924,0.078c-0.969,0-1.499-0.678-1.502-1.904c-0.008-3.236,0.003-6.473,0.007-9.709
	c0.008-7.767,0.017-15.534,0.026-23.301c0-0.272-0.004-0.546,0.019-0.817c0.083-0.953,0.693-1.521,1.646-1.521
	C11.438,1.2,20.397,1.206,29.357,1.191c0.977-0.001,1.493,0.482,1.705,1.364c0.086,0.358,0.117,0.737,0.117,1.107
	c0.014,10.8,0.02,21.598,0.025,32.398c0,0.271,0.049,0.561-0.021,0.814c-0.29,1.039-0.748,1.557-1.707,1.52
	c-1.939-0.074-3.883-0.027-5.824-0.043c-0.742-0.006-1.661-1.297-1.311-1.932c0.144-0.258,0.656-0.428,1.004-0.436
	c1.532-0.033,3.066,0.008,4.599,0.021C28.311,36.008,28.677,36.006,29.126,36.006z"/>
<path fill-rule="evenodd" clip-rule="evenodd" d="M15.977,40.443c-0.531,1.148-0.936,2.102-1.407,3.021
	c-0.413,0.805-1.047,0.84-1.329-0.018c-0.551-1.678-1.412-2.133-3.101-1.475c-0.981,0.383-1.566-0.35-1.2-1.4
	c0.658-1.885,1.388-3.746,2.137-5.596c0.255-0.631,0.282-1.125-0.057-1.77c-1.6-3.043-1.458-6.104,0.296-9.02
	c1.176-1.953,3.78-3.118,5.751-2.508c2.391,0.74,3.935,2.41,4.52,4.873c0.58,2.438,0.26,4.771-0.859,7.025
	c-0.203,0.41-0.232,1.037-0.076,1.471c0.573,1.588,1.262,3.137,1.898,4.703c0.102,0.252,0.189,0.514,0.243,0.777
	c0.241,1.205-0.139,1.578-1.332,1.332c-1.822-0.377-1.806-0.369-2.567,1.354c-0.162,0.365-0.49,0.658-0.741,0.986
	c-0.313-0.311-0.724-0.568-0.92-0.939C16.787,42.414,16.445,41.514,15.977,40.443z M20.074,29.189
	c0.021-1.814-0.208-2.752-1.191-3.971c-1.615-1.996-4.22-1.992-5.881,0.057c-1.45,1.789-1.702,4.754-0.205,7.035
	c1.19,1.814,4.021,2.455,5.389,1.105C19.404,32.215,20.201,30.793,20.074,29.189z M13.924,41.191
	c0.517-1.242,0.846-2.127,1.259-2.971c0.135-0.277,0.485-0.615,0.743-0.621c0.261-0.004,0.625,0.314,0.774,0.586
	c0.458,0.834,0.834,1.711,1.404,2.916c0.248-1.895,1.175-2.188,2.702-1.449c-0.671-1.576-1.215-2.852-1.761-4.133
	c-2.272,1.084-4.321,1.127-6.337-0.289c-0.524,1.424-1.034,2.805-1.653,4.482C12.774,38.693,13.405,39.656,13.924,41.191z"/>
<path fill-rule="evenodd" clip-rule="evenodd" d="M15.852,10.316c-2.552,0-5.105-0.022-7.657,0.013
	c-0.838,0.012-1.346-0.284-1.32-1.136C6.9,8.345,7.399,7.966,8.273,7.969c5.104,0.018,10.209,0.018,15.314,0
	c0.86-0.003,1.403,0.375,1.446,1.193c0.048,0.914-0.581,1.171-1.423,1.164C21.025,10.301,18.438,10.316,15.852,10.316z"/>
<path fill-rule="evenodd" clip-rule="evenodd" d="M17.425,17.126c-2.076,0-4.151-0.003-6.227,0.001
	c-0.81,0.001-1.544-0.105-1.558-1.15c-0.012-0.901,0.452-1.27,1.546-1.27c4.185-0.001,8.37,0.021,12.556-0.013
	c0.954-0.008,1.276,0.492,1.326,1.289c0.053,0.826-0.434,1.137-1.213,1.133c-2.144-0.01-4.287-0.003-6.431-0.003
	C17.425,17.117,17.425,17.122,17.425,17.126z"/>
</svg>
