<?xml version="1.0" encoding="utf-8"?>
<!-- Generator: Adobe Illustrator 16.0.0, SVG Export Plug-In . SVG Version: 6.00 Build 0)  -->
<!DOCTYPE svg PUBLIC "-//W3C//DTD SVG 1.1//EN" "http://www.w3.org/Graphics/SVG/1.1/DTD/svg11.dtd">
<svg version="1.1" id="Capa_1" xmlns="http://www.w3.org/2000/svg" xmlns:xlink="http://www.w3.org/1999/xlink" x="0px" y="0px"
	 width="32px" height="45px" viewBox="0 0 32 45" enable-background="new 0 0 32 45" xml:space="preserve">
<path fill-rule="evenodd" clip-rule="evenodd" d="M6.486,3.966c0.238,2.103,0.472,4.17,0.706,6.239
	c0.052,0.46,0.147,0.882,0.86,0.981c0-0.37,0.013-0.673-0.002-0.975C7.94,7.936,7.818,5.661,7.716,3.385
	C7.666,2.268,7.88,1.99,8.995,1.948c1.371-0.052,2.745-0.018,4.118-0.005c0.674,0.006,0.985,0.315,0.937,1.043
	c-0.123,1.823-0.202,3.65-0.273,5.476c-0.033,0.84-0.006,1.683-0.006,2.552c0.716,0.086,0.707-0.475,0.765-0.865
	c0.2-1.359,0.351-2.727,0.521-4.092c0.087-0.705,0.177-1.41,0.276-2.199c2.131,1.401,3.558,3.229,4.128,5.617
	c0.365,1.537,0.485,3.132,0.771,4.691c0.063,0.336,0.296,0.719,0.568,0.922c0.536,0.399,0.881,1.139,0.677,1.852
	c-0.192,0.672-0.724,0.703-1.317,0.702C14.087,17.63,8.016,17.63,1.945,17.64c-0.649,0.001-1.318,0.012-1.651-0.634
	c-0.323-0.628,0.01-2.093,0.604-2.39c0.769-0.383,0.747-0.992,0.776-1.649c0.1-2.165,0.53-4.24,1.696-6.107
	C4.143,5.622,5.148,4.632,6.486,3.966z"/>
<path fill-rule="evenodd" clip-rule="evenodd" d="M27.616,10.954c0.047-0.611,0.121-1.222,0.135-1.834
	c0.032-1.538,0.038-3.076,0.054-4.615c0.002-0.132-0.047-0.297,0.013-0.392c0.227-0.363,0.489-0.704,0.738-1.052
	c0.298,0.356,0.636,0.687,0.874,1.08c0.102,0.168-0.019,0.464-0.018,0.703c0.014,2.121,0.029,4.241,0.052,6.361
	c0.001,0.122,0.065,0.242,0.101,0.363c0.08,0.019,0.16,0.038,0.239,0.057c0.075-0.272,0.209-0.542,0.216-0.817
	c0.032-1.352,0.03-2.705,0.043-4.058c0.002-0.265-0.003-0.533,0.034-0.793c0.067-0.468,0.102-1.016,0.729-1.057
	c0.639-0.042,0.808,0.52,0.974,0.974c0.104,0.286,0.075,0.628,0.075,0.945c0.001,3.846,0.015,7.693-0.021,11.539
	c-0.009,0.893-0.27,1.782-0.285,2.675c-0.029,1.794,0.025,3.59,0.057,5.385c0.007,0.368,0.062,0.735,0.1,1.17
	c-2.788,0-5.527,0-8.354,0c0.057-1.01,0.104-2.029,0.172-3.047c0.132-2.035,0.281-4.065-0.158-6.094
	c-0.099-0.462,0.052-0.986,0.118-1.478c0.133-0.982,0.493-1.981-0.385-2.839c-0.118-0.116-0.107-0.393-0.107-0.595
	c-0.001-2.49,0.008-4.98,0.015-7.471c0-0.106-0.018-0.217,0.006-0.317c0.106-0.429,0.138-0.941,0.76-0.935
	c0.604,0.007,0.746,0.491,0.76,0.934c0.044,1.351,0.014,2.705,0.035,4.057c0.008,0.402,0.096,0.803,0.147,1.204
	c0.104,0.012,0.207,0.025,0.312,0.038c0.076-0.254,0.211-0.507,0.22-0.763c0.062-1.961,0.092-3.924,0.151-5.885
	c0.011-0.364,0.018-0.776,0.188-1.074c0.15-0.263,0.525-0.542,0.803-0.542c0.22,0,0.491,0.382,0.639,0.65
	c0.103,0.187,0.043,0.467,0.043,0.705c0.002,1.99-0.007,3.979,0.011,5.968c0.003,0.295,0.119,0.59,0.184,0.884
	C27.394,10.977,27.505,10.965,27.616,10.954z"/>
<path fill-rule="evenodd" clip-rule="evenodd" d="M11.069,27.792c-0.493,0.686-0.854,1.469-1.457,1.953
	c-0.697,0.563-1.569,1.065-2.433,1.219c-0.963,0.172-1.999,0.248-3.007-0.24c-1.066-0.516-1.663-1.312-2.061-2.36
	c-0.086-0.229-0.287-0.508-0.498-0.58c-0.518-0.177-0.716-0.522-0.724-1.014c-0.017-1.061-0.037-2.122-0.001-3.18
	c0.01-0.292,0.146-0.757,0.342-0.832c0.719-0.273,0.823-0.964,1.17-1.481c0.549-0.82,1.257-1.258,2.285-1.252
	c4.136,0.027,8.272,0.059,12.407-0.007c1.404-0.022,2.177,0.833,2.668,1.81c0.103,0.204,0.188,0.525,0.348,0.573
	c0.849,0.262,0.921,0.922,0.93,1.631c0.008,0.742,0.015,1.485-0.001,2.228c-0.014,0.672-0.021,1.356-0.932,1.499
	c-0.123,0.02-0.262,0.242-0.313,0.396c-0.878,2.705-2.947,3.454-5.327,2.914c-1.474-0.333-2.541-1.425-3.144-2.869
	c-0.05-0.12-0.109-0.237-0.168-0.354C11.141,27.825,11.107,27.817,11.069,27.792z M10.924,21.609c-1.96,0-3.921,0.002-5.882,0
	c-1.294-0.002-1.698,0.246-1.855,1.531c-0.145,1.174-0.111,2.374-0.106,3.563c0.006,1.104,0.459,2.121,1.46,2.521
	c1.208,0.48,2.521,0.422,3.715-0.294c0.978-0.586,1.392-1.536,1.705-2.557c0.16-0.524,0.53-0.879,1.048-0.739
	c0.364,0.099,0.699,0.449,0.953,0.764c0.187,0.229,0.197,0.594,0.326,0.881c0.501,1.119,1.161,2.079,2.529,2.19
	c0.5,0.041,1.005,0.009,1.508,0.026c1.039,0.035,1.711-0.523,2.057-1.415c0.67-1.735,0.456-3.55,0.22-5.321
	c-0.094-0.707-0.686-1.181-1.559-1.164C15.004,21.635,12.964,21.608,10.924,21.609z"/>
<path fill-rule="evenodd" clip-rule="evenodd" d="M23.041,32.756c0.092-1.375,0.177-2.654,0.264-3.976c2.849,0,5.637,0,8.476,0
	c0.079,1.137,0.172,2.213,0.219,3.292c0.018,0.404-0.158,0.69-0.658,0.688C28.641,32.75,25.94,32.756,23.041,32.756z"/>
</svg>
