<?xml version="1.0" encoding="utf-8"?>
<!-- Generator: Adobe Illustrator 16.0.0, SVG Export Plug-In . SVG Version: 6.00 Build 0)  -->
<!DOCTYPE svg PUBLIC "-//W3C//DTD SVG 1.1//EN" "http://www.w3.org/Graphics/SVG/1.1/DTD/svg11.dtd">
<svg version="1.1" id="Capa_1" xmlns="http://www.w3.org/2000/svg" xmlns:xlink="http://www.w3.org/1999/xlink" x="0px" y="0px"
	 width="32px" height="45px" viewBox="0 0 32 45" enable-background="new 0 0 32 45" xml:space="preserve">
<path fill-rule="evenodd" clip-rule="evenodd" d="M16.461,27.56c-1.192,0-2.385-0.02-3.576,0.014
	c-0.269,0.008-0.531,0.196-0.797,0.302c0.216,0.274,0.378,0.66,0.662,0.796c0.345,0.166,0.792,0.159,1.195,0.161
	c2.005,0.017,4.016-0.063,6.018,0.038c1.369,0.07,2.685-0.76,2.843-1.995c0.191-1.5,1.342-2.035,2.291-2.804
	c1.11-0.899,2.267-1.745,3.379-2.646c0.813-0.659,2.019-0.768,2.651-0.184c0.77,0.714,0.885,2.099,0.136,2.913
	c-0.852,0.926-1.805,1.757-2.704,2.638c-1.519,1.493-2.986,3.039-4.558,4.474c-1.493,1.364-2.608,3.201-4.616,3.944
	c-0.506,0.188-1.158,0.279-1.66,0.13c-1.954-0.577-3.855-1.328-5.81-1.897c-1.451-0.423-2.941-0.806-4.437-0.927
	c-0.775-0.064-1.672,0.354-2.388,0.771c-1.185,0.689-2.133,0.496-2.527-0.754c-0.677-2.149-1.333-4.307-1.958-6.474
	C0.259,24.86,0.5,24.414,1.602,23.854c2.165-1.103,4.28-2.319,6.512-3.261c0.828-0.35,2.013-0.318,2.88-0.018
	c1.553,0.539,2.967,1.467,4.486,2.123c0.613,0.266,1.348,0.289,2.034,0.335c0.864,0.06,1.739-0.021,2.604,0.053
	c1.239,0.105,1.998,1.112,1.916,2.426c-0.079,1.286-0.886,2.052-2.17,2.056c-0.583,0.003-1.163,0.002-1.747,0.003
	c-0.551,0-1.102,0-1.656,0C16.461,27.567,16.461,27.563,16.461,27.56z"/>
<path fill-rule="evenodd" clip-rule="evenodd" d="M17.613,12.997c0.097-0.689,0.241-1.375,0.28-2.067
	c0.075-1.381,0.292-2.736,1.076-3.889c0.887-1.305,1.988-2.375,3.678-2.622c0.73-0.106,1.436-0.371,2.16-0.529
	c0.588-0.129,0.874,0.176,0.886,0.749c0.059,2.919-0.301,5.748-2.189,8.124c-1.082,1.361-2.603,1.978-4.444,2.164
	c0.46-1.326,0.621-2.633,1.624-3.601c0.155-0.15,0.087-0.534,0.121-0.81c-0.297,0.108-0.791,0.144-0.859,0.334
	c-0.588,1.619-1.229,3.239-1.585,4.915c-0.247,1.17-0.07,2.431-0.093,3.65c-0.006,0.317-0.004,0.649-0.096,0.945
	c-0.057,0.18-0.28,0.413-0.445,0.426c-0.155,0.013-0.414-0.199-0.479-0.368c-0.123-0.313-0.169-0.667-0.189-1.006
	c-0.07-1.186-0.121-2.374-0.17-3.56c-0.021-0.527-0.277-0.79-0.803-0.833c-3.646-0.295-4.971-2.437-5.627-5.334
	c-0.159-0.701-0.152-1.439-0.239-2.158c-0.068-0.553,0.206-0.695,0.706-0.706c2.466-0.053,4.749,1.157,5.59,3.967
	c0.222,0.739,0.492,1.464,0.737,2.196C17.373,12.987,17.494,12.992,17.613,12.997z"/>
</svg>
