<?xml version="1.0" encoding="utf-8"?>
<!-- Generator: Adobe Illustrator 16.0.0, SVG Export Plug-In . SVG Version: 6.00 Build 0)  -->
<!DOCTYPE svg PUBLIC "-//W3C//DTD SVG 1.1//EN" "http://www.w3.org/Graphics/SVG/1.1/DTD/svg11.dtd">
<svg version="1.1" id="Capa_1" xmlns="http://www.w3.org/2000/svg" xmlns:xlink="http://www.w3.org/1999/xlink" x="0px" y="0px"
	 width="32px" height="45px" viewBox="0 0 32 45" enable-background="new 0 0 32 45" xml:space="preserve">
<path fill-rule="evenodd" clip-rule="evenodd" d="M22.129,37.65c-0.353,0-0.635,0-0.92,0.001c-6.735,0.007-13.469,0-20.205,0.039
	c-0.831,0.004-1.117-0.216-1.084-1.085c0.093-2.386,0.07-4.777,0.163-7.165c0.078-2.012,1.024-2.9,2.935-2.874
	c3.658,0.051,7.316,0.013,10.974,0.012c0.203,0,0.432,0.061,0.603-0.016c0.225-0.101,0.401-0.308,0.599-0.469
	c-0.198-0.16-0.389-0.448-0.593-0.459c-1.014-0.048-2.031-0.021-3.047-0.021c-1.916,0.001-3.834-0.052-5.747,0.027
	c-0.876,0.036-1.496-0.349-1.876-0.979c-1.062-1.761-1.431-3.674-0.609-5.644c0.764-1.833,2.169-2.858,4.153-2.877
	c3.57-0.035,7.142-0.03,10.712-0.008c1.475,0.01,3.109,1.457,3.601,3.209c0.234,0.839,0.406,1.729,0.412,2.599
	c0.032,5.016,0.008,10.033,0,15.049C22.196,37.166,22.162,37.339,22.129,37.65z M20.881,20.998
	c-0.092-0.517-0.133-1.051-0.284-1.549c-0.551-1.793-3.112-2.403-4.345-1.053c-1.296,1.419-1.443,3.727-0.338,5.294
	c0.666,0.943,2.074,1.397,2.918,0.859C20.1,23.743,20.934,22.639,20.881,20.998z M9.025,28.788c-1.856,0-3.712,0.029-5.568-0.014
	c-0.757-0.016-0.871,0.374-0.839,0.99c0.029,0.561-0.185,1.207,0.78,1.2c3.711-0.025,7.424-0.019,11.136,0.003
	c0.934,0.006,0.697-0.642,0.713-1.163c0.014-0.528,0.116-1.057-0.741-1.031C12.68,28.826,10.851,28.789,9.025,28.788z M5.564,35.095
	c1.13,0.001,1.472-0.264,1.477-1.089c0.006-0.866-0.29-1.133-1.258-1.135C4.816,32.87,4.465,33.19,4.47,34.065
	C4.474,34.86,4.886,35.173,5.564,35.095z M13.896,32.871c-0.975-0.011-1.188,0.237-1.243,1.251c-0.044,0.821,0.399,1.008,1.07,1.013
	c0.927,0.01,1.314-0.307,1.327-1.115C15.064,33.143,14.802,32.883,13.896,32.871z M10.022,35.104
	c0.614,0.063,1.131-0.099,1.103-1.018c-0.03-0.982-0.211-1.211-1.136-1.215c-1.034-0.005-1.265,0.209-1.272,1.176
	C8.712,34.907,8.933,35.103,10.022,35.104z"/>
<path fill-rule="evenodd" clip-rule="evenodd" d="M23.306,37.663c0-4.793,0-9.49,0-14.273c2.691,0,5.324-0.009,7.956,0.005
	c0.693,0.005,0.62,0.567,0.62,1.026c0.006,3.479,0.002,6.958,0,10.438c0,0.707,0.041,1.419-0.021,2.12
	c-0.022,0.24-0.3,0.653-0.463,0.654C28.71,37.675,26.021,37.663,23.306,37.663z"/>
<path fill-rule="evenodd" clip-rule="evenodd" d="M24.136,22.563c0-0.806-0.045-1.613,0.009-2.416
	c0.253-3.789,0.553-7.575,0.787-11.365c0.049-0.791,0.353-1.011,1.077-0.964c0.867,0.056,1.738,0.041,2.607,0.021
	c0.553-0.012,0.789,0.237,0.824,0.779c0.171,2.704,0.351,5.407,0.534,8.109c0.112,1.645,0.24,3.288,0.351,4.932
	c0.021,0.286,0.004,0.574,0.004,0.903C28.227,22.563,26.207,22.563,24.136,22.563z"/>
<path fill-rule="evenodd" clip-rule="evenodd" d="M29.313,6.84c-0.91,0-2.055,0-3.248,0c0.14-1.939,0.303-3.792,1.929-5.097
	c0.62-0.498,2.9-0.842,3.598-0.488c0.465,0.236,0.56,1.365,0.143,1.908c-0.459,0.597-0.982,1.148-1.401,1.772
	C29.966,5.483,29.701,6.104,29.313,6.84z"/>
</svg>
