<?xml version="1.0" encoding="utf-8"?>
<!-- Generator: Adobe Illustrator 16.0.0, SVG Export Plug-In . SVG Version: 6.00 Build 0)  -->
<!DOCTYPE svg PUBLIC "-//W3C//DTD SVG 1.1//EN" "http://www.w3.org/Graphics/SVG/1.1/DTD/svg11.dtd">
<svg version="1.1" id="Capa_1" xmlns="http://www.w3.org/2000/svg" xmlns:xlink="http://www.w3.org/1999/xlink" x="0px" y="0px"
	 width="32px" height="45px" viewBox="0 0 32 45" enable-background="new 0 0 32 45" xml:space="preserve">
<path fill-rule="evenodd" clip-rule="evenodd" d="M20.739,21.776c0-0.573-0.009-1.091,0.004-1.609
	c0.005-0.184-0.076-0.245-0.231-0.308c-0.678-0.28-1.354-0.565-2.018-0.876c-0.173-0.081-0.271-0.089-0.415,0.035
	c-0.274,0.238-0.562,0.463-0.855,0.677c-0.333,0.245-0.673,0.216-0.939-0.094c-0.4-0.466-0.789-0.941-1.162-1.427
	c-0.308-0.4-0.267-0.666,0.102-1.006c0.318-0.293,0.784-0.542,0.899-0.901c0.102-0.319-0.191-0.763-0.306-1.152
	c-0.165-0.56-0.164-0.557-0.739-0.589c-0.238-0.013-0.476-0.039-0.712-0.07c-0.392-0.052-0.673-0.338-0.661-0.737
	c0.024-0.692,0.072-1.384,0.135-2.073c0.031-0.341,0.363-0.524,0.813-0.496c0.351,0.023,0.702,0.059,1.054,0.061
	c0.09,0,0.22-0.083,0.265-0.164c0.238-0.438,0.44-0.896,0.688-1.328c0.108-0.19,0.064-0.298-0.061-0.441
	c-0.262-0.299-0.517-0.605-0.758-0.92c-0.239-0.312-0.246-0.585,0.042-0.852c0.489-0.455,1.003-0.888,1.531-1.299
	c0.272-0.213,0.577-0.152,0.828,0.104c0.295,0.3,0.587,0.603,0.866,0.918c0.126,0.143,0.224,0.156,0.405,0.082
	c0.387-0.158,0.787-0.283,1.188-0.399c0.173-0.05,0.235-0.124,0.238-0.305c0.002-0.397,0.017-0.796,0.05-1.192
	c0.03-0.373,0.231-0.599,0.605-0.612c0.668-0.025,1.341-0.023,2.009,0.005c0.366,0.016,0.554,0.269,0.568,0.685
	c0.013,0.397-0.011,0.796,0.013,1.193c0.006,0.1,0.107,0.242,0.2,0.281c0.427,0.18,0.862,0.34,1.303,0.483
	c0.087,0.028,0.238-0.02,0.308-0.087c0.294-0.284,0.561-0.597,0.853-0.883c0.357-0.35,0.673-0.361,1.047-0.02
	c0.47,0.429,0.927,0.873,1.373,1.326c0.3,0.305,0.305,0.577,0.031,0.907c-0.304,0.367-0.625,0.719-0.922,1.059
	c0.249,0.558,0.48,1.096,0.736,1.623c0.04,0.083,0.192,0.151,0.297,0.158c0.362,0.023,0.727,0.014,1.09,0.02
	c0.479,0.007,0.719,0.24,0.718,0.708c-0.002,0.614-0.014,1.228-0.019,1.842c-0.003,0.347-0.185,0.571-0.513,0.621
	c-0.356,0.055-0.723,0.065-1.085,0.065c-0.223,0-0.328,0.046-0.399,0.29c-0.154,0.519-0.373,1.017-0.593,1.597
	c0.301,0.285,0.646,0.595,0.972,0.927c0.295,0.301,0.308,0.631,0.035,0.941c-0.396,0.453-0.801,0.9-1.224,1.329
	c-0.402,0.409-0.688,0.408-1.131,0.049c-0.272-0.221-0.536-0.458-0.827-0.655c-0.093-0.063-0.274-0.065-0.385-0.02
	c-0.598,0.24-1.188,0.495-1.771,0.768c-0.103,0.048-0.213,0.193-0.226,0.305c-0.053,0.471-0.069,0.946-0.102,1.458
	c0.102,0,0.223,0,0.344,0c1.899,0.001,3.797-0.001,5.696,0.002c0.866,0.001,1.354,0.492,1.354,1.347c0,3.502,0,7.003,0,10.504
	c0,0.896-0.479,1.42-1.374,1.422c-3.798,0.011-7.596,0.007-11.393,0.002c-0.936,0-1.423-0.655-1.416-1.428
	c0.024-3.49,0.029-6.983-0.003-10.473c-0.006-0.812,0.634-1.431,1.409-1.386C19.317,21.81,20.067,21.776,20.739,21.776z
	 M28.76,34.21c0.381,0,0.718,0.002,1.055,0c0.604-0.002,0.737-0.136,0.737-0.74c0-3.363,0-6.728,0-10.092
	c0-0.655-0.141-0.797-0.795-0.797c-3.683,0-7.365,0-11.048,0.001c-0.576,0-0.738,0.165-0.738,0.756c0,2.238,0,4.477,0,6.718
	c0,1.192,0.002,2.388-0.002,3.58c-0.001,0.304,0.12,0.533,0.425,0.557c0.437,0.035,0.88,0.009,1.372,0.009
	c0-0.59-0.019-1.155,0.004-1.719c0.055-1.363,1.211-2.538,2.569-2.573c1.238-0.032,2.479-0.032,3.717,0.003
	c1.532,0.043,2.654,1.198,2.701,2.732C28.772,33.153,28.76,33.662,28.76,34.21z M22.481,17.568c2.277-0.005,4.111-1.864,4.109-4.165
	c-0.004-2.193-1.89-4.018-4.146-4.008c-2.215,0.01-4.043,1.87-4.046,4.117C18.397,15.766,20.217,17.574,22.481,17.568z"/>
<path fill-rule="evenodd" clip-rule="evenodd" d="M11.76,15.591c-0.151,0.387-0.298,0.741-0.42,1.104
	c-0.029,0.085-0.003,0.22,0.05,0.295c0.141,0.204,0.316,0.386,0.469,0.583c0.197,0.252,0.182,0.504-0.036,0.737
	c-0.358,0.38-0.716,0.761-1.082,1.133c-0.239,0.243-0.494,0.258-0.759,0.041c-0.253-0.207-0.466-0.55-0.747-0.612
	c-0.262-0.059-0.581,0.205-0.888,0.269c-0.237,0.049-0.279,0.156-0.281,0.369c-0.006,1.156-0.011,1.155-1.154,1.156
	c-0.329,0.001-0.658,0.01-0.988,0.014c-0.282,0.004-0.454-0.125-0.482-0.412c-0.029-0.271-0.063-0.542-0.062-0.813
	c0.001-0.194-0.071-0.274-0.25-0.333c-0.299-0.1-0.587-0.235-0.895-0.362c-0.21,0.194-0.422,0.399-0.646,0.59
	c-0.275,0.234-0.522,0.234-0.791-0.011c-0.384-0.353-0.762-0.714-1.135-1.082c-0.253-0.25-0.255-0.458-0.029-0.748
	c0.097-0.125,0.204-0.244,0.307-0.365c0.095-0.111,0.191-0.222,0.266-0.307c-0.132-0.358-0.24-0.691-0.382-1.009
	c-0.042-0.096-0.169-0.194-0.273-0.213c-0.244-0.045-0.498-0.028-0.744-0.064c-0.283-0.042-0.434-0.206-0.424-0.515
	c0.013-0.477,0.004-0.955,0.007-1.432c0.003-0.425,0.176-0.668,0.587-0.591c0.683,0.129,0.958-0.166,1.086-0.766
	c0.034-0.162,0.141-0.308,0.22-0.471c-0.194-0.22-0.395-0.436-0.582-0.663c-0.233-0.284-0.234-0.535,0.016-0.785
	c0.388-0.384,0.784-0.76,1.188-1.125c0.262-0.235,0.529-0.254,0.748,0.02c0.392,0.496,0.787,0.626,1.365,0.295
	c0.22-0.126,0.376-0.189,0.352-0.47C5.352,8.822,5.363,8.593,5.378,8.366C5.401,8.042,5.58,7.87,5.904,7.867
	c0.568-0.005,1.137-0.004,1.705,0.01c0.377,0.009,0.578,0.174,0.525,0.551C8.03,9.174,8.294,9.582,9.037,9.734
	c0.195,0.041,0.325,0.081,0.477-0.066c0.162-0.158,0.34-0.303,0.517-0.443c0.271-0.215,0.519-0.208,0.756,0.034
	c0.358,0.365,0.708,0.738,1.055,1.114c0.25,0.274,0.289,0.513,0.015,0.744c-0.528,0.444-0.624,0.879-0.257,1.493
	c0.149,0.25,0.236,0.425,0.541,0.412c0.147-0.006,0.295,0.016,0.442,0.025c0.352,0.023,0.527,0.179,0.535,0.528
	c0.011,0.488,0.003,0.978-0.016,1.466c-0.012,0.316-0.19,0.499-0.52,0.512C12.297,15.565,12.016,15.579,11.76,15.591z M3.969,14.347
	c0.003,1.583,1.242,2.805,2.839,2.802c1.538-0.002,2.793-1.239,2.797-2.75c0.002-1.586-1.275-2.883-2.835-2.875
	C5.223,11.529,3.965,12.797,3.969,14.347z"/>
<path fill-rule="evenodd" clip-rule="evenodd" d="M12.51,30.266c0,0.229,0.004,0.435-0.001,0.638
	c-0.01,0.334-0.163,0.514-0.487,0.539c-0.419,0.033-0.838,0.055-1.259,0.068c-0.358,0.009-0.552-0.145-0.529-0.507
	c0.027-0.435-0.134-0.605-0.544-0.763C9.257,30.075,9,30.132,8.695,30.453c-0.422,0.45-0.534,0.429-0.987,0.028
	c-0.229-0.203-0.47-0.396-0.702-0.594c-0.326-0.277-0.378-0.516-0.086-0.806c0.368-0.363,0.381-0.675,0.121-1.118
	c-0.178-0.309-0.325-0.438-0.686-0.418C5.702,27.581,5.607,27.47,5.57,26.83c-0.02-0.328-0.053-0.657-0.061-0.985
	c-0.01-0.397,0.116-0.53,0.509-0.57c0.113-0.013,0.227-0.006,0.341-0.009c0.112,0,0.224,0,0.325,0
	c0.127-0.335,0.251-0.639,0.35-0.95c0.022-0.071-0.022-0.189-0.074-0.254c-0.129-0.158-0.285-0.292-0.423-0.443
	c-0.2-0.218-0.204-0.44-0.004-0.667c0.263-0.298,0.519-0.603,0.785-0.897c0.266-0.293,0.489-0.356,0.76-0.088
	c0.415,0.408,0.793,0.392,1.278,0.143c0.242-0.125,0.331-0.222,0.315-0.493c-0.049-0.839,0.023-0.903,0.873-0.923
	c0.296-0.008,0.591-0.011,0.886-0.019c0.292-0.009,0.441,0.142,0.472,0.42c0.03,0.259,0.051,0.518,0.078,0.792
	c0.179,0.044,0.354,0.082,0.525,0.131c0.172,0.049,0.342,0.111,0.522,0.17c0.173-0.199,0.342-0.398,0.517-0.59
	c0.214-0.233,0.461-0.241,0.695-0.049c0.317,0.256,0.626,0.526,0.923,0.807c0.268,0.252,0.276,0.447,0.058,0.75
	c-0.139,0.192-0.294,0.373-0.44,0.561c0.147,0.29,0.277,0.579,0.442,0.848c0.048,0.079,0.193,0.135,0.296,0.138
	c0.951,0.027,0.956,0.023,1.059,0.973c0.03,0.282,0.028,0.565,0.04,0.85c0.009,0.242-0.095,0.392-0.347,0.417
	c-0.067,0.007-0.134,0.022-0.202,0.031c-0.219,0.028-0.563-0.02-0.635,0.098c-0.175,0.291-0.243,0.653-0.313,0.996
	c-0.015,0.079,0.12,0.201,0.204,0.284c0.625,0.62,0.626,0.627,0.024,1.275c-0.186,0.199-0.375,0.396-0.562,0.594
	c-0.224,0.24-0.496,0.289-0.716,0.053c-0.382-0.404-0.755-0.441-1.189-0.104C12.786,30.189,12.652,30.211,12.51,30.266z
	 M11.05,23.727c-1.348,0.006-2.426,1.079-2.426,2.415c0,1.307,1.12,2.4,2.458,2.398c1.333-0.002,2.422-1.095,2.416-2.422
	C13.492,24.787,12.402,23.722,11.05,23.727z"/>
<path fill-rule="evenodd" clip-rule="evenodd" d="M24.216,24.093c1.405-0.004,2.548,1.112,2.542,2.479
	c-0.009,1.399-1.133,2.529-2.535,2.544c-1.376,0.016-2.497-1.115-2.496-2.518C21.728,25.174,22.799,24.096,24.216,24.093z"/>
</svg>
