<?xml version="1.0" encoding="utf-8"?>
<!-- Generator: Adobe Illustrator 16.0.0, SVG Export Plug-In . SVG Version: 6.00 Build 0)  -->
<!DOCTYPE svg PUBLIC "-//W3C//DTD SVG 1.1//EN" "http://www.w3.org/Graphics/SVG/1.1/DTD/svg11.dtd">
<svg version="1.1" id="Capa_1" xmlns="http://www.w3.org/2000/svg" xmlns:xlink="http://www.w3.org/1999/xlink" x="0px" y="0px"
	 width="32px" height="45px" viewBox="0 0 32 45" enable-background="new 0 0 32 45" xml:space="preserve">
<path fill-rule="evenodd" clip-rule="evenodd" d="M16.438,24.87c-0.357,0-0.657,0-0.956,0c-4.79-0.001-9.581-0.002-14.372-0.003
	c-1.042,0-1.137-0.088-1.105-1.038c0.028-0.835,0.149-0.919,1.206-0.852c0.072,0.004,0.146-0.014,0.241-0.023
	c0.067-1.17,0.131-2.333,0.203-3.496c0.214-3.447,1.528-6.447,3.896-8.926C6.462,9.577,7.479,8.6,9.003,8.359
	c0.08,1.217,0.16,2.378,0.232,3.54c0.063,1.016,0.098,2.036,0.185,3.05c0.039,0.452,0.033,0.986,0.733,1.119
	c0-1.119,0.025-2.195-0.006-3.27c-0.051-1.782-0.161-3.562-0.183-5.344c-0.003-0.254,0.299-0.65,0.55-0.748
	c1.307-0.505,2.637-0.588,3.983-0.066c0.464,0.18,0.612,0.443,0.59,0.915c-0.104,2.162-0.192,4.325-0.273,6.487
	c-0.024,0.651-0.003,1.303-0.003,1.993c0.719-0.06,0.751-0.558,0.787-1.033c0.153-2.107,0.296-4.214,0.444-6.321
	c0.01-0.121,0.025-0.241,0.043-0.412c1.777,0.548,3.062,1.711,4.162,3.066c1.307,1.613,2.088,3.503,2.649,5.5
	c0.154,0.55-0.033,0.677-0.444,0.903c-1.741,0.956-3.475,1.928-5.172,2.959c-0.538,0.327-0.895,0.863-0.855,1.592
	C16.471,23.121,16.438,23.957,16.438,24.87z"/>
<path fill-rule="evenodd" clip-rule="evenodd" d="M17.438,25.438c0-0.814,0.075-1.637-0.02-2.44
	c-0.106-0.893,0.409-1.213,1.058-1.578c1.854-1.041,3.687-2.118,5.508-3.213c0.551-0.33,1.009-0.333,1.546,0.017
	c1.194,0.78,2.407,1.531,3.627,2.27c0.793,0.48,1.618,0.904,2.408,1.388c0.154,0.095,0.299,0.351,0.297,0.531
	c-0.013,1.831,0.046,3.672-0.119,5.491c-0.216,2.384-1.252,4.493-2.805,6.277c-0.995,1.144-2.213,2.096-3.353,3.109
	c-0.591,0.525-1.238,0.462-1.885,0.063c-2.432-1.495-4.217-3.528-5.377-6.155C17.502,29.335,17.564,27.387,17.438,25.438z
	 M25.791,28.939c0.353,0,0.603,0.001,0.852,0c2.047-0.005,2.034-0.005,1.915-2.046c-0.027-0.457-0.197-0.637-0.647-0.626
	c-0.68,0.018-1.358,0.004-2.121,0.004c0-0.743,0.001-1.396,0-2.052c-0.002-1.525-0.002-1.497-1.544-1.51
	c-0.66-0.006-0.838,0.26-0.813,0.866c0.035,0.881,0.009,1.766,0.009,2.697c-0.359,0-0.612-0.005-0.863,0.001
	c-2.211,0.044-1.816-0.396-1.871,1.981c-0.01,0.486,0.173,0.7,0.667,0.687c0.654-0.021,1.309-0.006,2.066-0.006
	c0,0.789-0.001,1.494,0,2.199c0.001,1.646,0.001,1.628,1.629,1.557c0.569-0.025,0.746-0.268,0.729-0.807
	C25.772,30.945,25.791,30.005,25.791,28.939z"/>
<path fill-rule="evenodd" clip-rule="evenodd" d="M3.241,26.129c4.409,0,8.775,0,13.251,0c0,1.278,0,2.563,0,3.977
	c-0.513,0.076-1.124,0.211-1.742,0.252c-2.855,0.192-5.677-0.179-8.481-0.636c-0.773-0.126-1.529-0.506-2.232-0.883
	C3.294,28.438,3.132,27.74,3.241,26.129z"/>
</svg>
